<svg width="25" height="24" viewBox="0 0 25 24" fill="none" xmlns="http://www.w3.org/2000/svg">
<path d="M8.55469 2V5" stroke="#98A2B3" stroke-width="1.5" stroke-miterlimit="10" stroke-linecap="round" stroke-linejoin="round"/>
<path d="M16.5547 2V5" stroke="#98A2B3" stroke-width="1.5" stroke-miterlimit="10" stroke-linecap="round" stroke-linejoin="round"/>
<path d="M4.05469 9.09H21.0547" stroke="#98A2B3" stroke-width="1.5" stroke-miterlimit="10" stroke-linecap="round" stroke-linejoin="round"/>
<path d="M22.5547 19C22.5547 19.75 22.3447 20.46 21.9747 21.06C21.2847 22.22 20.0147 23 18.5547 23C17.5447 23 16.6247 22.63 15.9247 22C15.6147 21.74 15.3447 21.42 15.1347 21.06C14.7647 20.46 14.5547 19.75 14.5547 19C14.5547 16.79 16.3447 15 18.5547 15C19.7547 15 20.8247 15.53 21.5547 16.36C22.1747 17.07 22.5547 17.99 22.5547 19Z" stroke="#98A2B3" stroke-width="1.5" stroke-miterlimit="10" stroke-linecap="round" stroke-linejoin="round"/>
<path d="M17.3574 18.8024L18.5383 19.2108L20.1029 17.6091" stroke="#98A2B3" stroke-width="1.5" stroke-linecap="round" stroke-linejoin="round"/>
<path d="M21.5547 8.5V16.36C20.8247 15.53 19.7547 15 18.5547 15C16.3447 15 14.5547 16.79 14.5547 19C14.5547 19.75 14.7647 20.46 15.1347 21.06C15.3447 21.42 15.6147 21.74 15.9247 22H8.55469C5.05469 22 3.55469 20 3.55469 17V8.5C3.55469 5.5 5.05469 3.5 8.55469 3.5H16.5547C20.0547 3.5 21.5547 5.5 21.5547 8.5Z" stroke="#98A2B3" stroke-width="1.5" stroke-miterlimit="10" stroke-linecap="round" stroke-linejoin="round"/>
<path d="M12.5502 13.7H12.5592" stroke="#98A2B3" stroke-width="2" stroke-linecap="round" stroke-linejoin="round"/>
<path d="M8.849 13.7H8.85798" stroke="#98A2B3" stroke-width="2" stroke-linecap="round" stroke-linejoin="round"/>
<path d="M8.849 16.7H8.85798" stroke="#98A2B3" stroke-width="2" stroke-linecap="round" stroke-linejoin="round"/>
</svg>
